<?xml version="1.0" encoding="utf-8"?>
<!-- Generator: Adobe Illustrator 19.1.0, SVG Export Plug-In . SVG Version: 6.00 Build 0)  -->
<svg version="1.1" id="Layer_1" xmlns="http://www.w3.org/2000/svg" xmlns:xlink="http://www.w3.org/1999/xlink" x="0px" y="0px"
	 viewBox="0 0 358.6 358.6" enable-background="new 0 0 358.6 358.6" xml:space="preserve">
<g>
	<path fill="#181616" d="M358.6,179.3c-0.1,99-80.5,179.4-179.3,179.4C80,358.6-0.3,277.9,0,178.3C0.3,79.7,80.9-0.1,180.3,0
		C278.2,0.1,358.7,81,358.6,179.3z M261.9,145.9c1.8,1.1,3.6,1.1,5.7,0.3c3.7-1.5,7.4-2.7,11.1-4.1c7.7-2.9,7.7-2.9,7.2-10.2
		c0.3,0,0.6,0.1,0.9,0.1c2,6.3,1.9,6.2,8.3,4c4.2-1.5,8.4-3,12.7-4.1c3.8-1,5.8-2.8,5.1-6.9c1.7,3.2,4,4.4,7.5,2.4
		c2-1.1,4.3-1.7,6.5-2.5c10.2-3.6,10.2-3.5,6.3-13.7c-0.5-1.2-0.5-2.6-1.1-3.8c-8.6-16.2-18-31.8-31.6-44.5c-1.7-1.6-3.2-3.5-6-2.9
		c0.7-2.3-0.8-3.7-2.3-5.1c-7.8-7.4-16.3-13.9-25.8-19.2c-1.6-0.9-3.1-1.9-5.1-1.2c-0.2-2.6-2.3-3.4-4.2-4.5
		c-11.2-6-23.1-10.2-35.3-13.7c-10.2-2.9-20.7-4.6-31.3-5.4c-3.9-0.3-5.5,0.8-5.9,5.1c-0.4,4.6-0.5,9.3-0.9,13.9
		c-0.3,4.1,1.2,5.6,5.1,4.9c19.7,1.2,38.3,6.5,56,15.2c1.3,0.6,2.9,1,3,2.9c-4.4-1.9-8.8-3.8-13.2-5.6c-13.7-5.6-27.9-9.4-42.7-10.4
		c-3.8-0.3-5.5,0.7-5.2,4.9c0.4,5.1,0.3,10.3,0,15.4c-0.3,4,1.6,5.4,5.1,5.7c7.5,0.5,14.8,2,21.8,4.3c8.1,2.6,16.5,5.1,23.2,10.8
		l0,0c-1.8,0.3-3.2-0.6-4.7-1.4c-13.6-7.1-28.1-10.9-43.3-12.5c-2.2,0.4-6-1.8-5.9,2.7c0.2,5.5-1.1,10.8-1.1,16.2c0,6.9,0,6.9,7,6.9
		c6.7,1.8,14.1,1.5,20.2,5.5c-6.9-0.5-13.2-3.8-20.2-3.5c-6.9-1.8-6.9-1.8-7,5.3c0,4.2-0.7,8.5,0.2,12.4c1.2,5.1-0.8,6.5-5.2,6.8
		c-1,0.1-2,0.1-3,0.2c-0.4-0.5-0.7-0.4-1,0.1c-19.9,2.8-35.8,12.1-46.4,29.4c-12.2,19.9-12.4,40.7-2.7,61.7
		c-7.2-2.2-13.9-0.4-20.7,2c-4,1.4-5.7,3.3-2.3,7.1c0.7,2,1.4,4,2.1,5.9l0,0c-3.3-0.7-2.7-4.5-4.9-6.1c-1.1-2.8-0.8-7.3-6.1-5.4
		c-4.8,1.7-9.7,3.3-14.4,5.2c-6.8,2.7-6.8,2.9-2.7,9.3c1.7,4.9,4.2,9.3,6.9,13.7c1.6,2.6,4.3,4.7,4.3,8.2l-0.1,0.1
		c-1.6-0.8-2.3-2.3-3.3-3.6c-4.4-5.7-6.6-12.6-10.7-18.4c-1.8-6.5-1.9-6.6-8.3-4.3c-4,1.4-8,3.1-12.1,4.3c-6.3,1.8-6.5,2.1-3.6,8
		c1.9,5.8,4.8,11.2,8,16.4c3.8,6.3,8,12.4,12,18.6l-0.1,0.1c-3.9-0.9-4.9-4.7-7-7.3c-6.2-7.9-9.7-17.3-14.9-25.8
		c-1.4-7.3-1.4-7.4-8-5c-3.4,1.2-6.9,2.4-10.3,3.8c-6.6,2.7-6.8,3.2-4,9.7c9.6,22.5,23.7,41.7,41.1,58.7c1.4,1.6,2.5,3.5,4.9,3.9
		c8.6,6.9,17,14,27.2,18.5c0.2,1.2,1.1,1.4,2.1,1.5c6.5,4.4,13.8,7.1,21,10c15.5,6.3,31.8,8.9,48.2,10.9c2.9,0.4,5.7-0.2,5.6-3.8
		c-0.2-5.2,0.8-10.2,1.2-15.3c0.4-4.7-1.5-6.5-6-5.7c-2.3-0.1-4.7,0-7-0.3c-18.8-2.7-36.7-8.4-53.4-17.6c-0.3-0.1-0.4-0.2-0.4-0.5
		c0.4-0.4,0.8-0.8,1.1-1.1c0.5,0,1,0,1.5,0c4,3.9,9.4,5.4,14.4,7.5c13.6,5.7,27.6,9.3,42.4,10c3.2,0.1,4.5-0.8,4.4-4.2
		c-0.2-5.7-0.1-11.3,0-17c0-2.2,0-4.1-3-3.9c0.3-0.6,0.6-1.6,0.9-1.6c4.1,0,4.2-2.6,4.1-5.7c-0.2-5.1-0.2-10.3,0-15.4
		c0.2-3.8-1-5.8-5.1-5.2c-2.4-0.4-5-0.5-7.3-1.2c-6.1-1.9-12.7-2.2-17.7-6.9c1.7-0.2,3.1,0.8,4.7,1.3c6.6,2.3,13.2,4.8,20.3,4.7
		c5.5,1.8,6,1.5,6-4.1c0-5.4,0.1-10.9-0.1-16.3c-0.1-2.6,1-3.6,3.4-3.7c14.7-0.4,28.1-4.3,39.9-13.5c19.5-15.2,30.8-43.4,19.3-73.3
		c8.6,0.5,15.8-4.2,23.6-6.4C262.1,148.2,261.8,146.9,261.9,145.9z"/>
	<path fill="#C4270F" d="M173.9,116.7c1-0.1,2-0.1,3-0.2c4.4,0.7,8.9,0.3,13.4,1c7.7,1.2,14.4,4.7,21.5,7.4c1.4,1,2.7,2,4.1,3l0.1,0
		c0.6,0.3,1.1,0.7,1.7,1c1.4,1.2,2.8,2.4,4.2,3.7c1.4,1.4,2.7,2.8,4.1,4.3c4.6,5.5,8.4,11.6,11.5,18.1c11.5,29.9,0.2,58-19.3,73.3
		c-11.7,9.2-25.2,13.1-39.9,13.5c-10.2-0.5-19.8-3.2-28.9-7.8c-4.4-1.9-7.9-5.3-11.9-7.9c-4.7-5.9-9.8-11.6-13.6-18.1
		c-9.7-21-9.5-41.8,2.7-61.7c10.5-17.3,26.5-26.6,46.4-29.4C173.3,116.8,173.6,116.7,173.9,116.7z M131.7,178.6
		c-0.2,26.7,21,48.2,47.5,48.4c26.6,0.1,48.1-21,48.5-47.6c0.4-26.1-21.4-48.2-47.7-48.4C153.5,130.8,131.9,152.1,131.7,178.6z"/>
	<path fill="#414144" d="M98,216.9c2.2,1.6,1.6,5.4,4.9,6.1c0.1,2.2,0.3,4.4,3,5c-0.2,2.4,1.1,3.9,3,5c0.2,1.7,1,2.8,2.8,3.5
		c0.2-2.5-0.9-3.3-2.7-3.5c0.2-2.4-1.1-3.9-3-5c-0.4-2-1.1-3.9-3-5c-0.7-2-1.4-4-2.1-5.9c3.5-4.6,8.8-4.5,13.8-5
		c2.5-0.3,4.5,0.8,6.3,2.5c4.3,4.1,8,8.8,11.6,13.5c-3.5,5.5-7.5,10.4-12.9,14.1c-0.9,0-1.8-0.1-2.6-0.1c-0.3-0.3-0.7-0.7-1-1
		c-0.3-0.3-0.7-0.7-1-1c-0.1-0.4-0.3-0.9-0.4-1.3c-0.1,0.1-0.3,0.2-0.4,0.3c0.3,0.4,0.5,0.7,0.8,1.1c0.3,0.3,0.7,0.7,1,1
		c0.3,0.3,0.7,0.7,1,1c0.3,0.8,0.5,1.6,0.8,2.4c-4.8,7-11.5,12.3-16.7,18.9c-0.1,0.7-0.2,1.4-0.3,2.1c-6.6,5.5-12.4,11.9-17.8,18.6
		c-1.2,0.2-1.4-1.9-3-1.1c0.7,1,1.3,1.9,1.9,2.8c-3.4,3.8-6.7,7.7-10.2,11.4c-2.8,3-3.7,6.1-2,9.9c-2.4-0.4-3.5-2.4-4.9-3.9
		c0.4-2.1,1.8-4.1-0.4-6.4c-5.6-5.9-11.2-11.8-16.2-18.2c-7-8.8-13.7-17.9-18.3-28.3c-1.9-4.1-0.6-7.2,2.8-9.4c4-2.6,8.4-4.8,13.3-5
		c5.2,8.5,8.7,17.9,14.9,25.8c2.1,2.6,3,6.4,7,7.3c-0.2,3.5,2.5,4.6,4.7,6c-0.6-2.8-2.4-4.6-4.6-6.1c-4-6.2-8.2-12.3-12-18.6
		c-3.2-5.2-6.1-10.6-8-16.4c8-2.7,16-5.3,24-8c4.1,5.9,6.2,12.8,10.7,18.4c1,1.3,1.7,2.8,3.3,3.6c0.1,1.2,0.7,2,2,2
		c0,0.8,0.2,1.6,1,2c0.3,2.2,1.8,3.4,4.4,4.9c-0.8-3.2-1.9-4.7-4.3-5c0-0.8-0.2-1.6-1-2c-0.1-1.3-0.7-2-2-2c0-3.5-2.7-5.5-4.3-8.2
		c-2.6-4.4-5.2-8.8-6.9-13.7C81.8,220.9,90,219.2,98,216.9z"/>
	<path fill="#414144" d="M225.9,136.9c-1.4-1.4-2.7-2.8-4.1-4.3c8.7-2.3,13.7-9.3,17.8-16.3c1.6-2.8,2.6-2.2,4.4-2.3
		c2.8-0.1,3.4-2.1,4-4.2c0.3-0.9,0.9-1.6,1.8-1.9c2.1-0.1,3.1-1.3,3.2-3.3c1-1.3,2.1-2.5,3.1-3.8c2.3-0.1,3.1-2.4,5-3.1
		c0.6,0.1,1.2,0.1,1.8,0.2c0.1,0.4,0.3,0.9,0.4,1.3c0.1-0.1,0.3-0.2,0.4-0.3c-0.3-0.4-0.5-0.7-0.8-1.1c-0.4-0.9-0.8-1.8-1.1-2.7
		c-0.1-2,1.7-2.3,2.9-3.2c3-0.6,4.8-2.4,5.3-5.4c1.9-2.2,3.8-4.4,5.7-6.6c1.8,0.1,2.9-1.5,4.3-2.1c0.6,0,1.2,0.1,1.8,0.1
		c0.3,0.3,0.7,0.7,1,1c0.2,0.4,0.3,0.9,0.5,1.3c0.1-0.1,0.3-0.2,0.4-0.3c-0.3-0.4-0.5-0.7-0.8-1.1c-0.3-0.3-0.7-0.7-1-1
		c-0.4-0.9-0.8-1.8-1.2-2.7c2.6-4,5.4-7.8,9.5-10.4c2,0,3.4,1.2,4.6,2.6c5.3,5.7,11,11.1,15.9,17.1c5.5,6.6,10.4,13.7,14.1,21.6
		c1.9,4,1.9,8-2.4,10.4c-3.3,1.8-6.7,3.7-10.7,3.5c-1-1.4-1.9-2.7-2.9-4.1c0-0.8-0.2-1.6-1-2c0-0.8-0.2-1.6-1-2c-0.8-2.4-1-5.1-4-6
		c-0.1-2.2-0.3-4.3-3-5c0-1.5-0.1-2.8-2-3c0-0.8-0.2-1.6-1-2c-1.3-2.9-2.3-6.2-6-7c0.1-2.2-0.5-3.8-3-4c-0.2-0.4-0.3-0.9-0.5-1.3
		c-0.1,0.1-0.4,0.3-0.4,0.3c0.2,0.4,0.5,0.8,0.8,1.1c0.2,2,1.5,3.1,3,4c1.5,2.8,3,5.5,6,7c0,0.8,0.2,1.6,1,2c0.1,1.4,0.7,2.4,2,3
		c0.4,2,1.1,3.9,3,5c0.8,2.3,1,5.1,4,6c0,0.8,0.1,1.6,1,2c0,0.8,0.2,1.6,1,2c-0.6,3,1.7,5.2,2.1,8c-8,2.7-16.1,5.4-24.1,8
		c-0.3,0-0.6-0.1-0.9-0.1c0,0,0,0,0,0c-0.7-3.6-1.5-7-5-9c0-0.8-0.1-1.6-1-2c0-1.5,0-2.9-2-3c0.2-1.7-0.3-3.2-2-4
		c-0.1-1.2-0.7-2-2-2c0.1-1.5-0.1-2.9-2-3c0-1.4-0.7-2.4-2-3c-0.1-1.2-0.7-2-2-2c-0.2-0.4-0.3-0.9-0.5-1.3c-0.1,0.1-0.4,0.3-0.4,0.3
		c0.2,0.4,0.5,0.7,0.8,1.1c0.1,1.3,0.7,2,2,2c0,1.4,0.7,2.4,2,3c0.1,1.4,0.7,2.4,2,3c0.1,1.2,0.7,2,2,2c-0.1,1.7,0.3,3.2,2,4
		c0.1,1.4,0.7,2.4,2,3c0,0.8,0.2,1.6,1,2c1.3,3,2.6,6,3.9,9c-2.1,1.7-4.6,2.5-7,3.6c-5.2,2.3-11.2,2.9-15.9,6.5
		c-1-1.1-2-2.1-2.9-3.2c-0.3-0.3-0.6-0.7-1-1c-0.2-2.2-0.3-4.4-3-5c0.1-1.5,0-2.9-2-3c0.1-1.5,0-2.9-2-3c0-0.8-0.2-1.6-1-2
		c-0.1-1.3-0.7-2-2-2c-0.1-0.1-0.3-0.3-0.4-0.4c0.1,0.2,0.3,0.3,0.4,0.5c0.1,1.3,0.7,2,2,2c0,0.8,0.2,1.6,1,2c0.1,1.4,0.7,2.4,2,3
		c0.1,1.4,0.7,2.4,2,3c0.4,2,1.1,3.9,3,5c0.3,0.3,0.7,0.7,1,1c0,1.3,0.1,2.7,0.1,4c-2.6-0.3-4.8,1-7.2,1.5
		c-3.9,0.9-8.1,2.6-11.7-0.9c-2.5-2.4-5-4.9-7.1-7.6C229.7,131.8,228.3,131.9,225.9,136.9z M242.9,116.9c-0.1-0.1-0.1-0.3-0.2-0.3
		c-0.1-0.1-0.2,0-0.3-0.1C242.6,116.7,242.8,116.8,242.9,116.9c0.3,0.4,0.6,0.7,1,1c0.3,0.3,0.7,0.7,1,1c0.1,0.4,0.3,0.9,0.4,1.3
		c0.1-0.1,0.3-0.2,0.4-0.3c-0.3-0.4-0.5-0.7-0.8-1.1c-0.3-0.3-0.7-0.7-1-1C243.6,117.6,243.3,117.2,242.9,116.9z"/>
	<path fill="#414144" d="M215.9,127.9c-1.4-1-2.7-2-4.1-3c1.3-7,2.4-6-5.9-9c-16.4-6-17-6.5-17-24c7-0.3,13.3,2.9,20.2,3.5
		c-6.1-4-13.5-3.7-20.2-5.5c-2-8.6,0.1-17.3,0-25.9c15.2,1.6,29.7,5.4,43.3,12.5c1.5,0.8,2.9,1.6,4.7,1.4c0.1,0.1,0.3,0.3,0.4,0.4
		c0-0.1,0-0.2-0.1-0.2c-0.1-0.1-0.2-0.1-0.4-0.2c-6.7-5.7-15-8.2-23.2-10.8c-7.1-2.3-14.4-3.7-21.8-4.3c-3.4-0.2-5.4-1.7-5.1-5.7
		c0.4-5.1,0.4-10.3,0-15.4c-0.3-4.2,1.4-5.2,5.2-4.9c14.9,1,29,4.9,42.7,10.4c4.4,1.8,8.8,3.8,13.2,5.6c0,0,0,0,0,0
		c0.7,0.8,1.4,1.6,2.1,2.4c-1.9,6.8-6.3,12.4-9.5,18.5c-1.7,3.2-1.2,4.6,1.6,6.4c2.7,1.7,5.7,3.1,7.3,6.2c-2.7-1.2-5.1-2.7-7.5-4.3
		c-2.6-1.8-4.4-1.6-5.8,1.5c-1.8,3.9-4.1,7.6-6.2,11.4c-3.6,6.7-3.6,6.7,2,11.8c0.1,0.1,0,0.5,0,1c-2,0-3.1-1.7-4.7-2.4
		c-1.3-0.5-2.6-1.2-3.4,0.5C220.3,113,214.2,119,215.9,127.9z M210.8,96.2c1.1,0.8,1.5,1.3,2.1,1.5c0.5,0.2,1.3,0.3,1.4-0.6
		c0-0.3-0.5-0.8-0.9-0.9C212.7,96.1,212.1,96.2,210.8,96.2z"/>
	<path fill="#DBDBDB" d="M101,263.3c5.2-6.6,11.9-11.9,16.7-18.9c1.9,0.2,1.9-1.1,1.9-2.4c5.4-3.7,9.4-8.6,12.9-14.1
		c1.7-0.6,3.3-1.3,5-1.9c4,2.6,7.5,6,11.9,7.9c-0.6,0.9-1.2,1.7-1,2.9c-3.6,5.9-7.9,11.5-9.5,18.4c-0.8,0.1-1.7,0.2-2.5,0.3
		c-1-0.8-2.2-2-3-0.4c-0.5,0.9,1.2,1,2,1.5c0.3,0.7,0.6,1.5,0.9,2.2c-4.3,6.5-8.6,13.1-11.3,20.5c-1.7,0.1-2.7,0.7-2.1,2.6
		c-4.3,7-8.5,14.1-12,21.5c-0.5,0-1,0-1.5,0c-0.9-1-2.6-1-2.9-0.3c-0.6,1.1,1.1,0.9,1.8,1.4c0,0.3,0.1,0.4,0.4,0.5
		c-2.4,7.6-7.1,14-11.7,20.4C86.6,321,78.2,313.9,69.6,307c-1.7-3.8-0.8-7,2-9.9c3.5-3.7,6.8-7.6,10.2-11.4c0.5,0.3,1,0.6,1.5,1
		c0.4,0.3,0.7,0.6,1.1,0.9c0.4,0.3,0.9,1.1,1.4,0.4c0.6-0.7-0.3-0.9-0.7-1.2c-0.3-0.3-0.7-0.7-1-1c-0.4-0.6-0.8-1.2-1.2-1.8
		c5.4-6.7,11.1-13.1,17.8-18.6c0.1,0.3,0.4,0.5,0.7,0.4c0.3,0.2,0.6,0.5,0.9,0.7c0.4,0.3,0.8,0.5,1.2,0.8c0.3,0.4,0.7,0.4,1,0
		c-0.2-0.2-0.4-0.3-0.5-0.5c0.1-0.8-0.4-0.9-1-1c-0.3-0.4-0.6-0.8-0.8-1.2C101.8,264.2,101.4,263.8,101,263.3z M111.5,272.2
		c-0.7-0.4-1.4-1.8-2.2-0.5c-0.4,0.7,0.5,1.3,1.3,1.5c2.6,2.4,5.5,4.3,8.8,5.4C117.6,275.4,114.2,274.2,111.5,272.2z"/>
	<path fill="#DBDBDB" d="M215.9,127.9c-1.7-8.9,4.4-15,7.9-22c0.8-1.7,2.1-1,3.4-0.5c1.6,0.7,2.7,2.4,4.7,2.4c0-0.4,0.1-0.8,0-1
		c-5.6-5.1-5.7-5.1-2-11.8c2.1-3.8,4.3-7.5,6.2-11.4c1.5-3.1,3.2-3.4,5.8-1.5c2.4,1.6,4.8,3.1,7.5,4.3c-1.6-3.1-4.6-4.5-7.3-6.2
		c-2.8-1.8-3.3-3.3-1.6-6.4c3.2-6.1,7.6-11.7,9.5-18.5c2-0.1,2.6-0.8,1.2-2.5c3.6-5.7,7.1-11.4,9.8-17.6c0.2-0.2,0.3-0.4,0.3-0.6
		c2-0.7,3.5,0.3,5.1,1.2c9.4,5.3,18,11.7,25.8,19.2c1.4,1.4,2.9,2.8,2.3,5.1c-1.8,1.3-3.6,2.5-4.2,4.8c-4.1,2.6-6.9,6.4-9.5,10.4
		c-0.2-0.1-0.4-0.1-0.6-0.1c0.2-1.4-1-1.3-1.8-1.5c-0.4-0.6-0.9-1.1-1.5-0.5c-0.2,0.1,0.1,0.8,0.1,1.2c1.8,2.3-1.4,3.7-1.2,5.7
		c-1.9,2.2-3.8,4.4-5.7,6.6c-2.8,0.8-4.6,2.5-5.3,5.4c-1.2,0.9-3,1.2-2.9,3.2c-0.2-0.2-0.5-0.2-0.7-0.1c0-1.3-1-1.3-1.8-1.5
		c-0.4-0.6-0.9-1.1-1.5-0.5c-0.2,0.1,0.1,0.8,0.2,1.2c2.4,3-2.5,4.1-1.9,6.6c-1,1.3-2.1,2.5-3.1,3.8c-2,0.2-3.1,1.3-3.2,3.3
		c-0.9,0.3-1.5,0.9-1.8,1.9c-2.4,0.4-3.8,1.7-4,4.2c-1.8,0.2-2.8-0.5-4.4,2.3c-4,7-9,14-17.8,16.3c-1.4-1.2-2.8-2.5-4.2-3.7
		C217.1,128.6,216.5,128.3,215.9,127.9L215.9,127.9z M256.4,91.2c-0.3-0.2-0.6-0.5-0.8-0.7c-0.5-0.5-1.2-1.6-1.9-0.8
		c-0.8,0.9,0.2,1.3,0.9,1.7c0.4,0.3,0.7,0.6,1.1,0.9c0.4,0.4,0.7,1.3,1.4,0.5C257.7,92,256.7,91.6,256.4,91.2z M272.1,69.2
		c2.1,3.1,2.1,3.1,4.3,3.2C275.6,70.9,274.6,69.7,272.1,69.2z M232.7,108.2c0.1,1.4,1,1.9,2.1,2.2c0.2,0,0.5-0.6,0.7-1
		C234.6,108.8,234.1,107.5,232.7,108.2z"/>
	<path fill="#414144" d="M110.8,303.5c3.5-7.5,7.7-14.5,12-21.5c2.6,0,4.6,1.8,6.8,2.8c11.2,5.2,22.8,8.9,35.2,10.1
		c1.3,0.7,2.6,1.3,4.1,1c3-0.2,3,1.8,3,3.9c0,5.7-0.2,11.3,0,17c0.1,3.4-1.3,4.3-4.4,4.2c-14.8-0.7-28.8-4.3-42.4-10
		C120.2,309,114.9,307.5,110.8,303.5z"/>
	<path fill="#414144" d="M96.8,325.5c4.7-6.4,9.3-12.7,11.7-20.4c16.7,9.2,34.5,14.9,53.4,17.6c2.3,0.3,4.6,0.2,7,0.3c0,2,0.1,4,0,6
		c-0.6,10.6-5.8,15.3-15.4,13.8c-3.9-0.6-7.8-1.4-11.6-2.5c-12.5-3.4-24.7-7.8-36.1-14c-2.3-1.3-4.9-2.9-6.8,0.6
		C97.9,326.9,97,326.7,96.8,325.5z"/>
	<path fill="#414144" d="M261,35.1c-2.7,6.2-6.2,12-9.8,17.6c-1.1,0.1-2.2,0.1-3.3,0.2c0,0,0,0,0,0c0-1.9-1.7-2.3-3-2.9
		c-17.7-8.7-36.3-14-56-15.2c-0.5-3.9,0.6-7.6,1.4-11.3c1.3-5.7,8.2-8.2,16.7-6.4c15.8,3.4,31.2,7.9,45.5,15.6
		C255.2,34.2,257.9,35.3,261,35.1z"/>
	<path fill="#414144" d="M124.8,279.4c2.7-7.4,7-14,11.3-20.5c2.6,0.4,5.2,0.7,7.8,1.1c0,0,0,0,0,0c5,4.6,11.6,5,17.7,6.9
		c2.3,0.7,4.9,0.8,7.3,1.2c0,6.9-0.1,13.8,0.1,20.7c0.1,3.2-0.9,4.7-4.2,4.3c-11.9-0.7-22.9-4.7-33.6-9.4
		C129,282.5,126.1,282.1,124.8,279.4z"/>
	<path fill="#363537" d="M290.2,64.8c0.6-2.3,2.4-3.6,4.2-4.8c2.7-0.6,4.2,1.3,5.9,2.9c13.6,12.6,23.1,28.2,31.6,44.5
		c0.6,1.1,0.7,2.6,1.1,3.8c3.9,10.2,4,10.1-6.3,13.7c-2.2,0.8-4.5,1.4-6.5,2.5c-3.5,2-5.8,0.9-7.5-2.4c0,0,0,0,0,0
		c-0.4-1.7-0.7-3.3-1.1-5c4,0.1,7.5-1.7,10.7-3.5c4.3-2.4,4.3-6.4,2.4-10.4c-3.7-7.8-8.7-14.9-14.1-21.6c-5-6-10.6-11.4-15.9-17.1
		C293.6,66,292.3,64.7,290.2,64.8z"/>
	<path fill="#414144" d="M138.8,255.2c1.6-6.9,5.9-12.5,9.5-18.4c0.8,3.6,3.8,4.3,6.6,5.2c12.1,4.2,14,6.9,14,19.9c0,1.3,0,2.7,0,4
		c-7.2,0.1-13.7-2.4-20.3-4.7c-1.5-0.5-2.9-1.5-4.7-1.3c0,0,0,0,0,0C142.6,257.9,139.1,258.3,138.8,255.2z"/>
	<path fill="#363537" d="M261,35.1c-3.1,0.1-5.8-0.9-8.5-2.4C238.2,25,222.8,20.6,207,17.2c-8.5-1.8-15.4,0.7-16.7,6.4
		c-0.8,3.7-1.9,7.4-1.4,11.3c-3.9,0.7-5.4-0.8-5.1-4.9c0.4-4.6,0.5-9.3,0.9-13.9c0.4-4.4,2-5.5,5.9-5.1c10.6,0.9,21,2.5,31.3,5.4
		C234.1,19.8,246,24,257.1,30c1.9,1,4,1.8,4.2,4.5C261.3,34.8,261.2,35,261,35.1z"/>
	<path fill="#363537" d="M46,235.9c-5,0.2-9.3,2.4-13.3,5c-3.5,2.2-4.7,5.3-2.8,9.4c4.7,10.4,11.3,19.4,18.3,28.3
		c5,6.4,10.6,12.3,16.2,18.2c2.2,2.3,0.8,4.2,0.4,6.4c-17.4-17-31.5-36.3-41.1-58.7c-2.8-6.5-2.6-7.1,4-9.7
		c3.4-1.4,6.8-2.6,10.3-3.8C44.6,228.5,44.6,228.6,46,235.9z"/>
	<path fill="#363537" d="M98.9,327c2-3.5,4.5-1.9,6.8-0.6c11.4,6.2,23.6,10.6,36.1,14c3.8,1,7.7,1.8,11.6,2.5
		c9.6,1.5,14.8-3.2,15.4-13.8c0.1-2,0-4,0-6c4.5-0.8,6.4,1,6,5.7c-0.4,5.1-1.3,10.2-1.2,15.3c0.1,3.6-2.7,4.2-5.6,3.8
		c-16.4-2.1-32.7-4.6-48.2-10.9C112.8,334,105.4,331.4,98.9,327z"/>
	<path fill="#363537" d="M188.9,91.9c0,17.5,0.6,18,17,24c8.3,3.1,7.2,2.1,5.9,9c-7.1-2.7-13.8-6.2-21.5-7.4
		c-4.5-0.7-8.9-0.3-13.4-1c4.3-0.3,6.4-1.8,5.2-6.8c-0.9-3.9-0.2-8.3-0.2-12.4C182,90.2,182,90.2,188.9,91.9z"/>
	<path fill="#363537" d="M225.9,136.9c2.4-5,3.8-5.1,7.1-1c2.2,2.7,4.6,5.2,7.1,7.6c3.6,3.4,7.7,1.7,11.7,0.9
		c2.4-0.5,4.7-1.8,7.2-1.5c1.2,0.8,1.3,2.6,2.9,3l0,0c-0.1,1,0.1,2.3-0.9,2.6c-7.8,2.3-15,7-23.6,6.4
		C234.4,148.5,230.5,142.5,225.9,136.9z"/>
	<path fill="#363537" d="M168.9,265.9c0-1.3,0-2.7,0-4c0-13-1.9-15.7-14-19.9c-2.8-1-5.8-1.7-6.6-5.2c-0.2-1.2,0.4-2,1-2.9
		c9.1,4.6,18.7,7.4,28.9,7.8c-2.3,0.1-3.5,1.1-3.4,3.7c0.2,5.4,0.1,10.9,0.1,16.3C174.9,267.4,174.4,267.7,168.9,265.9z"/>
	<path fill="#363537" d="M137.5,226c-1.7,0.6-3.3,1.2-5,1.9c-3.6-4.7-7.3-9.3-11.6-13.5c-1.7-1.7-3.8-2.7-6.3-2.5
		c-5,0.6-10.3,0.5-13.8,5c-3.4-3.7-1.6-5.6,2.3-7.1c6.7-2.4,13.5-4.2,20.7-2C127.7,214.4,132.7,220.1,137.5,226z"/>
	<path fill="#363537" d="M261.9,142.1c4.7-3.7,10.7-4.2,15.9-6.5c2.4-1.1,4.9-1.9,7-3.6c0.4,0,0.8,0,1.1,0c0,0,0,0,0,0
		c0.5,7.3,0.5,7.3-7.2,10.2c-3.7,1.4-7.5,2.6-11.1,4.1c-2,0.8-3.8,0.8-5.7-0.3c0,0,0,0,0,0C261.9,144.7,261.9,143.4,261.9,142.1z"/>
	<path fill="#363537" d="M71.9,225.9c-8,2.7-16,5.3-24,8c-2.9-5.8-2.6-6.1,3.6-8c4.1-1.2,8-2.9,12.1-4.3
		C70.1,219.4,70.1,219.4,71.9,225.9z"/>
	<path fill="#363537" d="M286.9,132c8-2.7,16.1-5.4,24.1-8c0.7,0.3,1.3,0.7,2,1c0,0,0,0,0,0c0.8,4.1-1.2,6-5.1,6.9
		c-4.3,1.1-8.5,2.7-12.7,4.1C288.8,138.2,288.8,138.2,286.9,132z"/>
	<path fill="#363537" d="M98,216.9c-8,2.3-16.3,4-23.2,9.1c-4.1-6.3-4.1-6.6,2.7-9.3c4.7-1.9,9.6-3.5,14.4-5.2
		C97.2,209.6,96.9,214.1,98,216.9z"/>
	<path fill="#363537" d="M189,64.1c0,8.6-2.1,17.2,0,25.9c-7,0-6.9,0-7-6.9c0-5.4,1.3-10.8,1.1-16.2C182.9,62.2,186.7,64.5,189,64.1
		z"/>
	<path fill="#363537" d="M164.8,293c3.3,0.4,4.2-1.2,4.2-4.3c-0.2-6.9-0.1-13.8-0.1-20.7c4.1-0.6,5.2,1.5,5.1,5.2
		c-0.2,5.1-0.2,10.3,0,15.4c0.1,3.1,0,5.7-4.1,5.7c-0.3,0-0.6,1-0.9,1.6c-1.5,0.2-2.9-0.3-4.1-1C164.8,294.2,164.8,293.6,164.8,293z
		"/>
	<path fill="#363537" d="M173.9,116.7c-0.3,0-0.7,0-1,0.1C173.2,116.3,173.6,116.3,173.9,116.7z"/>
	<path fill="#363537" d="M131.7,178.6c0.2-26.6,21.8-47.9,48.3-47.7c26.3,0.2,48.1,22.3,47.7,48.4c-0.4,26.6-21.9,47.7-48.5,47.6
		C152.7,226.9,131.5,205.3,131.7,178.6z M225.1,179.6c0.2-25.4-19.9-45.9-45.2-46.1c-25-0.2-45.7,20.1-45.9,45
		c-0.2,25.2,20.2,46,45.3,46.2C204.2,225,224.9,204.6,225.1,179.6z"/>
	<path fill="#414144" d="M216,128c0.6,0.3,1.1,0.7,1.7,1C217.1,128.6,216.5,128.3,216,128z"/>
	<path fill="#181616" d="M68,268.9c2.2,1.5,4,3.3,4.6,6.1C70.4,273.5,67.7,272.4,68,268.9C67.9,269,68,268.9,68,268.9z"/>
	<path fill="#181616" d="M89,251.9c2.4,0.3,3.5,1.9,4.3,5C90.7,255.4,89.2,254.2,89,251.9L89,251.9z"/>
	<path fill="#181616" d="M105.9,227.9c1.9,1.1,3.2,2.6,3,5l-0.1,0.1C107,231.8,105.7,230.4,105.9,227.9L105.9,227.9z"/>
	<path fill="#181616" d="M105.9,228c-2.7-0.7-2.9-2.8-3-5c0,0,0,0,0,0C104.9,224,105.5,225.9,105.9,228
		C105.9,227.9,105.9,228,105.9,228z"/>
	<path fill="#181616" d="M109,232.9c1.8,0.2,3,1,2.7,3.5C109.9,235.7,109.1,234.6,109,232.9C108.9,233,109,232.9,109,232.9z"/>
	<path fill="#181616" d="M82.9,283.9c0.4,0.6,0.8,1.2,1.2,1.8c-0.3,0.3-0.5,0.6-0.8,0.9c-0.5-0.3-1-0.6-1.5-1
		c-0.6-0.9-1.2-1.8-1.9-2.8C81.5,282.1,81.8,284.1,82.9,283.9z"/>
	<path fill="#181616" d="M86,247.9c1.3,0.1,1.9,0.8,2,2c0,0-0.1,0.1-0.1,0.1C86.6,249.9,86,249.2,86,247.9
		C85.9,248,86,247.9,86,247.9z"/>
	<path fill="#181616" d="M119.6,242c0,1.3,0,2.6-1.9,2.4c-0.3-0.8-0.5-1.6-0.8-2.4c0,0,0,0,0,0C117.8,241.9,118.7,242,119.6,242z"/>
	<path fill="#181616" d="M88.9,252c-0.8-0.4-1-1.1-1-2c0,0,0.1-0.1,0.1-0.1C88.8,250.3,89,251,88.9,252C89,251.9,88.9,252,88.9,252z
		"/>
	<path fill="#181616" d="M114.9,240c-0.3-0.4-0.5-0.7-0.8-1.1c0.1-0.1,0.3-0.2,0.4-0.3C114.7,239,114.8,239.5,114.9,240L114.9,240z"
		/>
	<path fill="#181616" d="M101,263.3c0.4,0.5,0.8,0.9,1.1,1.4c-0.3,0.4-0.5,0.7-0.8,1.1c-0.4,0.1-0.6-0.1-0.7-0.4
		C100.8,264.7,100.9,264,101,263.3z"/>
	<path fill="#181616" d="M115.9,240.9c0.3,0.3,0.7,0.7,1,1c0,0,0,0,0,0C116.6,241.6,116.2,241.3,115.9,240.9
		C115.9,240.9,115.9,240.9,115.9,240.9z"/>
	<path fill="#181616" d="M114.9,239.9c0.3,0.3,0.7,0.7,1,1c0,0,0,0,0,0C115.6,240.6,115.2,240.3,114.9,239.9
		C114.9,240,114.9,239.9,114.9,239.9z"/>
	<path fill="#363537" d="M256.1,100.9c-0.6-2.5,4.2-3.6,1.9-6.6c0.4-0.2,0.9-0.5,1.3-0.7c0.8,0.2,1.9,0.3,1.8,1.5c0,0.9,0,1.8,0,2.7
		C259.2,98.5,258.3,100.8,256.1,100.9z"/>
	<path fill="#181616" d="M286,131.9c-0.4,0-0.7,0-1.1,0c-1.3-3-2.6-6-3.9-9c0,0,0.1,0,0.1,0C284.5,124.9,285.3,128.4,286,131.9z"/>
	<path fill="#181616" d="M296.9,96c-2.9-1.5-4.5-4.2-6-7c0,0,0,0,0,0C294.7,89.7,295.6,93,296.9,96L296.9,96z"/>
	<path fill="#363537" d="M278.3,73.6c0.9,0.2,2,0.1,1.8,1.6c0,0.9,0,1.8-0.1,2.7c-1.5,0.7-2.5,2.2-4.3,2.1c-0.3-2,2.9-3.4,1.2-5.7
		C277.3,74,277.8,73.8,278.3,73.6z"/>
	<path fill="#181616" d="M312.9,124.9c-0.7-0.3-1.3-0.7-2-1c-0.4-2.7-2.7-5-2.1-8c0,0,0.1-0.1,0.1-0.1c1,1.4,1.9,2.7,2.9,4.1
		C312.2,121.6,312.6,123.3,312.9,124.9z"/>
	<path fill="#363537" d="M264.7,92c0.6-2.9,2.5-4.6,5.3-5.4C269.5,89.6,267.7,91.4,264.7,92z"/>
	<path fill="#181616" d="M306.9,112c-3-0.9-3.1-3.7-4-6l0.1,0C305.9,106.8,306.1,109.6,306.9,112L306.9,112z"/>
	<path fill="#181616" d="M261.9,142.1c0,1.3,0,2.6,0.1,3.8c-1.6-0.4-1.7-2.2-2.9-3c0-1.3-0.1-2.7-0.1-4c0,0,0,0,0,0
		C259.9,140,260.9,141,261.9,142.1z"/>
	<path fill="#363537" d="M244,114c0.2-2.5,1.6-3.8,4-4.2C247.4,111.9,246.7,114,244,114z"/>
	<path fill="#181616" d="M257.9,138c-1.9-1.1-2.6-3-3-5c0,0,0,0,0,0C257.7,133.5,257.8,135.7,257.9,138L257.9,138z"/>
	<path fill="#181616" d="M302.9,106c-1.9-1.1-2.6-3-3-5c0,0,0.1-0.1,0.1-0.1C302.6,101.6,302.9,103.7,302.9,106
		C303,105.9,302.9,106,302.9,106z"/>
	<path fill="#181616" d="M288,84.9c2.5,0.3,3.1,1.8,3,4c0,0,0,0,0,0C289.4,88,288.1,86.9,288,84.9L288,84.9z"/>
	<path fill="#363537" d="M249.8,108c0.1-2,1.2-3.1,3.2-3.3C252.8,106.7,251.8,107.8,249.8,108z"/>
	<path fill="#181616" d="M276,113.9c1.7,0.8,2.1,2.3,2,4l0,0C276.2,117.1,275.8,115.7,276,113.9C275.9,114,276,113.9,276,113.9z"/>
	<path fill="#181616" d="M252.9,129.9c2,0.1,2.1,1.5,2,3c0,0,0,0,0,0C253.6,132.4,253,131.3,252.9,129.9L252.9,129.9z"/>
	<path fill="#181616" d="M252.9,129.9c-1.3-0.6-2-1.6-2-3c0,0,0.1,0,0.1,0C252.9,127,253,128.4,252.9,129.9
		C252.9,129.9,252.9,129.9,252.9,129.9z"/>
	<path fill="#181616" d="M272,108.9c1.9,0.2,2.1,1.5,2,3l-0.1,0.1C272.6,111.4,271.9,110.4,272,108.9L272,108.9z"/>
	<path fill="#181616" d="M277.9,117.9c2,0.1,2,1.5,2,3l-0.1,0.1C278.6,120.4,278,119.4,277.9,117.9
		C277.9,118,277.9,117.9,277.9,117.9z"/>
	<path fill="#181616" d="M298,97.9c1.9,0.2,2,1.5,2,3c0,0-0.1,0.1-0.1,0.1C298.6,100.4,297.9,99.4,298,97.9
		C297.9,98,298,97.9,298,97.9z"/>
	<path fill="#181616" d="M271.9,109c-1.3-0.6-2-1.5-2-3l0.1-0.1C271.3,106.5,272,107.4,271.9,109C272,108.9,271.9,109,271.9,109z"/>
	<path fill="#181616" d="M269.9,106c-1.3-0.1-1.9-0.8-2-2l0.1-0.1C269.3,103.9,269.9,104.7,269.9,106C270,105.9,269.9,106,269.9,106
		z"/>
	<path fill="#181616" d="M274,111.9c1.3,0,1.9,0.8,2,2c0,0-0.1,0.1-0.1,0.1C274.6,113.9,274,113.2,274,111.9
		C273.9,112,274,111.9,274,111.9z"/>
	<path fill="#181616" d="M249.9,125c-1.3,0-1.9-0.8-2-2l0,0C249.3,122.9,249.9,123.7,249.9,125L249.9,125z"/>
	<path fill="#181616" d="M280,77.8c0-0.9,0-1.8,0.1-2.7c0.2-0.1,0.4-0.1,0.6,0c0.4,0.9,0.8,1.8,1.2,2.7c0,0-0.1,0.1-0.1,0.1
		C281.3,77.9,280.7,77.9,280,77.8z"/>
	<path fill="#181616" d="M261.1,97.8c0-0.9,0-1.8,0-2.7c0.3-0.1,0.5-0.1,0.7,0.1c0.4,0.9,0.8,1.8,1.1,2.7l-0.1,0.1
		C262.3,97.9,261.7,97.9,261.1,97.8z"/>
	<path fill="#181616" d="M262.9,97.9c0.3,0.4,0.5,0.7,0.8,1.1c-0.1,0.1-0.3,0.2-0.4,0.3C263.2,98.9,263,98.4,262.9,97.9
		C262.9,98,262.9,97.9,262.9,97.9z"/>
	<path fill="#181616" d="M297,95.9c0.8,0.4,1,1.1,1,2c0,0-0.1,0.1-0.1,0.1C297.1,97.5,296.9,96.8,297,95.9
		C296.9,96,297,95.9,297,95.9z"/>
	<path fill="#181616" d="M267.9,104c-0.3-0.4-0.5-0.7-0.8-1.1c0,0,0.2-0.2,0.4-0.3C267.7,103,267.8,103.5,267.9,104
		C268,103.9,267.9,104,267.9,104z"/>
	<path fill="#181616" d="M306.9,111.9c0.8,0.4,1,1.2,1,2l-0.1,0.1C307,113.6,306.9,112.8,306.9,111.9
		C306.9,112,306.9,111.9,306.9,111.9z"/>
	<path fill="#181616" d="M308,113.9c0.8,0.4,1,1.2,1,2c0,0-0.1,0.1-0.1,0.1C308,115.6,307.9,114.8,308,113.9
		C307.9,114,308,113.9,308,113.9z"/>
	<path fill="#181616" d="M280,120.9c0.8,0.4,1,1.2,1,2c0,0-0.1,0-0.1,0C280.1,122.5,279.9,121.8,280,120.9
		C279.9,121,280,120.9,280,120.9z"/>
	<path fill="#181616" d="M287.9,85c-0.3-0.4-0.5-0.7-0.8-1.1c0,0,0.2-0.2,0.4-0.3C287.7,84,287.8,84.5,287.9,85
		C288,84.9,287.9,85,287.9,85z"/>
	<path fill="#181616" d="M244.9,118.9c0.3,0.4,0.5,0.7,0.8,1.1c-0.1,0.1-0.3,0.2-0.4,0.3C245.2,119.8,245,119.4,244.9,118.9
		C244.9,119,244.9,118.9,244.9,118.9z"/>
	<path fill="#181616" d="M249.9,124.9c0.8,0.4,1,1.1,1,2c0,0-0.1,0-0.1,0C250.1,126.5,249.9,125.8,249.9,124.9
		C249.9,125,249.9,124.9,249.9,124.9z"/>
	<path fill="#181616" d="M282.9,78.9c0.3,0.4,0.5,0.7,0.8,1.1c-0.1,0.1-0.3,0.2-0.4,0.3C283.2,79.9,283,79.4,282.9,78.9
		C282.9,79,282.9,78.9,282.9,78.9z"/>
	<path fill="#181616" d="M243.9,117.9c0.3,0.3,0.7,0.7,1,1c0,0,0,0,0,0C244.6,118.6,244.2,118.3,243.9,117.9L243.9,117.9z"/>
	<path fill="#181616" d="M247.9,122.9c-0.1-0.2-0.3-0.3-0.4-0.5C247.6,122.6,247.8,122.8,247.9,122.9
		C247.9,122.9,247.9,122.9,247.9,122.9z"/>
	<path fill="#181616" d="M243.9,118c-0.3-0.3-0.7-0.7-1-1l0,0C243.3,117.2,243.6,117.6,243.9,118C243.9,117.9,243.9,118,243.9,118z"
		/>
	<path fill="#181616" d="M242.9,116.9c-0.1-0.1-0.3-0.3-0.4-0.4c0.1,0,0.2,0,0.3,0.1C242.8,116.7,242.9,116.8,242.9,116.9
		C242.9,116.9,242.9,116.9,242.9,116.9z"/>
	<path fill="#181616" d="M258,137.9c0.3,0.3,0.6,0.7,1,1c0,0,0,0,0,0C258.6,138.6,258.2,138.3,258,137.9
		C257.9,138,258,137.9,258,137.9z"/>
	<path fill="#181616" d="M282,77.9c0.3,0.3,0.7,0.7,1,1c0,0-0.1,0.1-0.1,0.1C282.6,78.6,282.2,78.3,282,77.9
		C281.9,78,282,77.9,282,77.9z"/>
	<path fill="#181616" d="M210.8,96.2c1.3,0,2-0.1,2.5,0c0.4,0.1,0.9,0.6,0.9,0.9c0,0.9-0.8,0.8-1.4,0.6
		C212.3,97.5,211.9,97,210.8,96.2z"/>
	<path fill="#181616" d="M247.9,52.9c1.1,0,2.2-0.1,3.3-0.2c1.4,1.7,0.8,2.5-1.2,2.5C249.3,54.5,248.6,53.7,247.9,52.9z"/>
	<path fill="#181616" d="M236.9,77.9c0.1,0,0.3,0.1,0.4,0.2c0.1,0,0.1,0.2,0.1,0.2C237.2,78.2,237.1,78.1,236.9,77.9
		C236.9,77.9,236.9,77.9,236.9,77.9z"/>
	<path fill="#181616" d="M164.8,293c0,0.6,0,1.2,0,1.9c-12.4-1.2-24-4.9-35.2-10.1c-2.2-1-4.2-2.8-6.8-2.8c-0.6-1.9,0.3-2.6,2-2.6
		c1.3,2.7,4.1,3.2,6.4,4.2C142,288.3,152.9,292.3,164.8,293z"/>
	<path fill="#414144" d="M111.5,272.2c2.7,2.1,6.1,3.3,8,6.4c-3.4-1.1-6.2-3-8.8-5.4C110.9,272.9,111.2,272.5,111.5,272.2z"/>
	<path fill="#181616" d="M138.8,255.2c0.3,3.1,3.8,2.7,5.1,4.7c-2.6-0.4-5.2-0.7-7.8-1.1c-0.3-0.7-0.6-1.5-0.9-2.2
		c0.4-0.4,0.7-0.7,1.1-1.1C137.1,255.4,138,255.3,138.8,255.2z"/>
	<path fill="#414144" d="M110.7,273.2c-0.8-0.2-1.8-0.8-1.3-1.5c0.8-1.3,1.5,0.1,2.2,0.5C111.2,272.5,110.9,272.9,110.7,273.2z"/>
	<path fill="#181616" d="M135.2,256.6c-0.7-0.5-2.5-0.6-2-1.5c0.9-1.6,2.1-0.4,3,0.4C135.9,255.9,135.6,256.3,135.2,256.6z"/>
	<path fill="#181616" d="M108.2,304.6c-0.6-0.5-2.3-0.3-1.8-1.4c0.3-0.7,2-0.7,2.9,0.3C108.9,303.9,108.6,304.3,108.2,304.6z"/>
	<path fill="#181616" d="M103,265.9c0.6,0.1,1.1,0.2,1,1c-0.2,0.2-0.3,0.3-0.5,0.5c-0.4-0.3-0.8-0.5-1.2-0.8
		C102.5,266.3,102.8,266.1,103,265.9z"/>
	<path fill="#181616" d="M104,266.9c0.2,0.2,0.4,0.3,0.5,0.5c-0.4,0.4-0.7,0.4-1,0C103.7,267.2,103.8,267,104,266.9z"/>
	<path fill="#181616" d="M84.4,287.5c-0.4-0.3-0.7-0.6-1.1-0.9c0.3-0.3,0.5-0.6,0.8-0.9c0.3,0.3,0.7,0.7,1,1
		C84.9,287,84.7,287.2,84.4,287.5z"/>
	<path fill="#181616" d="M85.1,286.7c0.4,0.3,1.3,0.5,0.7,1.2c-0.6,0.7-1-0.1-1.4-0.4C84.7,287.2,84.9,287,85.1,286.7z"/>
	<path fill="#181616" d="M102.2,264.7c0.3,0.4,0.6,0.8,0.8,1.2c-0.2,0.2-0.5,0.4-0.7,0.6c-0.3-0.2-0.6-0.5-0.9-0.7
		C101.7,265.4,101.9,265.1,102.2,264.7z"/>
	<path fill="#363537" d="M272.1,69.2c2.5,0.6,3.5,1.7,4.3,3.2C274.1,72.3,274.1,72.3,272.1,69.2z"/>
	<path fill="#414144" d="M232.7,108.2c1.4-0.6,1.9,0.7,2.8,1.2c-0.2,0.3-0.5,1-0.7,1C233.6,110.1,232.7,109.6,232.7,108.2z"/>
	<path fill="#363537" d="M254.6,91.2c-0.8-0.3-1.8-0.8-0.9-1.7c0.7-0.8,1.4,0.3,1.9,0.8C255.3,90.7,254.9,91,254.6,91.2z"/>
	<path fill="#363537" d="M257.9,94.3c-0.1-0.4-0.3-1.1-0.2-1.2c0.7-0.5,1.1-0.1,1.5,0.5C258.8,93.8,258.4,94.1,257.9,94.3z"/>
	<path fill="#363537" d="M256.4,91.1c0.3,0.5,1.2,0.8,0.7,1.5c-0.7,0.8-1-0.1-1.4-0.5C255.9,91.8,256.2,91.5,256.4,91.1z"/>
	<path fill="#363537" d="M255.7,92.2c-0.4-0.3-0.7-0.6-1.1-0.9c0.3-0.3,0.6-0.5,1-0.8c0.3,0.2,0.6,0.5,0.8,0.7
		C256.2,91.5,255.9,91.8,255.7,92.2z"/>
	<path fill="#363537" d="M276.9,74.3c0-0.4-0.3-1.1-0.1-1.2c0.7-0.5,1.2-0.1,1.5,0.5C277.8,73.8,277.3,74,276.9,74.3z"/>
	<path fill="#C4270F" d="M225.1,179.6c-0.2,25-20.9,45.4-45.7,45.2c-25.2-0.3-45.6-21-45.3-46.2c0.2-25,20.8-45.2,45.9-45
		C205.2,133.7,225.3,154.1,225.1,179.6z M172,178.6c-0.3,4.1,3.1,7.8,7.2,8.1c3.9,0.2,7.5-2.9,7.8-6.9c0.4-4.4-2.6-7.9-6.8-8.2
		C176,171.2,172.3,174.4,172,178.6z"/>
	<path fill="#181616" d="M172,178.6c0.3-4.1,4-7.4,8.2-7c4.3,0.3,7.2,3.9,6.8,8.2c-0.3,4-3.8,7.1-7.8,6.9
		C175.1,186.4,171.7,182.7,172,178.6z"/>
</g>
</svg>
